<?xml version="1.0" encoding="UTF-8"?>
<svg xmlns="http://www.w3.org/2000/svg" xmlns:xlink="http://www.w3.org/1999/xlink" width="384pt" height="384pt" viewBox="0 0 384 384" version="1.1">
<g id="surface1">
<path style=" stroke:none;fill-rule:nonzero;fill:rgb(97.647059%,97.647059%,97.647059%);fill-opacity:1;" d="M 298.671875 177.015625 L 127.789062 6.132812 C 123.835938 2.179688 118.558594 0 112.933594 0 C 107.308594 0 102.03125 2.179688 98.078125 6.132812 L 85.496094 18.714844 C 77.308594 26.914062 77.308594 40.238281 85.496094 48.425781 L 228.992188 191.921875 L 85.335938 335.574219 C 81.382812 339.53125 79.203125 344.804688 79.203125 350.425781 C 79.203125 356.054688 81.382812 361.328125 85.335938 365.289062 L 97.921875 377.867188 C 101.875 381.820312 107.148438 384 112.773438 384 C 118.402344 384 123.675781 381.820312 127.628906 377.867188 L 298.671875 206.828125 C 302.636719 202.859375 304.8125 197.5625 304.796875 191.929688 C 304.8125 186.277344 302.636719 180.980469 298.671875 177.015625 Z M 298.671875 177.015625 "/>
</g>
</svg>
